<?xml version="1.0" encoding="UTF-8"?>
<svg id="Ebene_1" xmlns="http://www.w3.org/2000/svg" version="1.1" viewBox="0 0 2579.16 2232.52">
  <!-- Generator: Adobe Illustrator 30.0.0, SVG Export Plug-In . SVG Version: 2.1.1 Build 123)  -->
  <defs>
    <style>
      .st0 {
        fill: none;
        stroke: #83f38f;
        stroke-linecap: round;
        stroke-linejoin: round;
        stroke-width: 65px;
      }
    </style>
  </defs>
  <g id="Ebene_11">
    <g id="uuid-ec8e9cf6-8002-4fe1-bbfb-ee3c9eb82342">
      <path class="st0" d="M1241.44,1233.33c-.42-.4-.84-.81-1.25-1.23-32.18-32.18-32.18-85.15,0-117.33,32.18-32.18,85.15-32.18,117.33,0,32.18,32.18,32.18,85.15,0,117.33,4.08-4.42,28.1-31.33,23.68-68.03-4.7-39.04-39.85-74.82-84.18-73.83-48.28,1.08-81.43,45.22-81.03,85.53.29,30.18,19.31,51.26,25.45,57.55h0Z"/>
    </g>
    <g id="Ebene_13">
      <path class="st0" d="M1197.42,999.2c7.89,6.33,27.32,23.66,36.25,53.42,11.72,39.07-3.06,71.59-6.84,79.34"/>
    </g>
  </g>
</svg>